<?xml version="1.0" encoding="utf-8"?>
<!-- Generator: Adobe Illustrator 16.0.0, SVG Export Plug-In . SVG Version: 6.00 Build 0)  -->
<!DOCTYPE svg PUBLIC "-//W3C//DTD SVG 1.1//EN" "http://www.w3.org/Graphics/SVG/1.1/DTD/svg11.dtd">
<svg version="1.1" id="Layer_1" xmlns="http://www.w3.org/2000/svg" xmlns:xlink="http://www.w3.org/1999/xlink" x="0px" y="0px"
	 width="300px" height="300px" viewBox="0 0 300 300" enable-background="new 0 0 300 300" xml:space="preserve">
<path opacity="0.8" fill="#98CA75" d="M141.4,186.4c0,0,27-4.6,44.3,17.3l5.6,23.8h-84.8v-15.6l11.4-13l20.4-12.9"/>
<circle opacity="0.8" fill="#98CA75" cx="150.1" cy="142" r="22.8"/>
<circle opacity="0.8" fill="#98CA75" cx="89" cy="147.3" r="17.5"/>
<circle opacity="0.8" fill="#98CA75" cx="211.1" cy="147.3" r="17.5"/>
<g>
	<defs>
		<rect id="SVGID_3_" x="9.7" y="45.5" width="280.6" height="209"/>
	</defs>
	<clipPath id="SVGID_2_">
		<use xlink:href="#SVGID_3_"  overflow="visible"/>
	</clipPath>
	<path clip-path="url(#SVGID_2_)" fill="#D3D3D3" d="M266.5,65.5H168c-2.5,0-3.8,2.1-4.5,4.5c-0.8,2.9,2.5,5.3,5,5.3l96.7,0.8
		c8.2,0,14.4,0.3,14.4,8.6v10.8c-4.1-3.3-9.3-5.3-14.9-5.3l-110.1-0.8V56.8c0-13.2-10.7-10.7-23.9-10.7H20.4
		C7.3,46.1,9.7,56.8,9.7,70v179.3c0,2.5,2,4.5,4.5,4.5h271.7c2.5,0,4.5-2,4.5-4.5V79C290.4,65.9,279.7,65.5,266.5,65.5L266.5,65.5z
		 M279.6,244l-259.5,0.6V71.4c0-8.2-2-14.9,6.2-14.9l103.1,0.3c8.2,0,14.9-1.5,14.9,6.7l0.5,32.7c0,2.5,2,4.5,4.5,4.5l115.3,0.9
		c8.2,0,14.9,6.7,14.9,14.9V244z M281.4,244.8"/>
</g>
<path fill="#D3D3D3" d="M211.1,169.2c12.4,0,22.4-10.1,22.4-22.4c0-12.4-10.1-22.4-22.4-22.4c-12.4,0-22.4,10.1-22.4,22.4
	C188.7,159.2,198.8,169.2,211.1,169.2L211.1,169.2z M211.1,133.4c7.4,0,13.5,6,13.5,13.4c0,7.4-6,13.4-13.5,13.4
	c-7.4,0-13.4-6-13.4-13.4C197.7,139.4,203.7,133.4,211.1,133.4L211.1,133.4z M211.1,133.4"/>
<path fill="#D3D3D3" d="M211.1,178.2c-6.1,0-12.1,1.5-17.4,4.4c-2.2,1.2-3,3.9-1.8,6.1c1.2,2.2,3.9,3,6.1,1.8
	c4-2.2,8.6-3.3,13.2-3.3c13.9,0,25.5,10.2,27.7,23.5h-27.7c-2.5,0-4.5,2-4.5,4.5c0,2.5,2,4.5,4.5,4.5h32.5c2.5,0,4.5-2,4.5-4.5
	C248.1,194.8,231.5,178.2,211.1,178.2L211.1,178.2z M211.1,178.2"/>
<path fill="#D3D3D3" d="M89.4,210.7H61.4c2.1-13.3,13.7-23.5,27.7-23.5c4.6,0,9.2,1.1,13.2,3.3c2.2,1.2,4.9,0.4,6.1-1.8
	c1.2-2.2,0.3-4.9-1.8-6.1c-5.3-2.9-11.4-4.4-17.4-4.4c-20.4,0-37,16.6-37,37c0,2.5,2,4.5,4.5,4.5h32.9c2.5,0,4.5-2,4.5-4.5
	C93.9,212.7,91.9,210.7,89.4,210.7L89.4,210.7z M89.4,210.7"/>
<path fill="#D3D3D3" d="M89,169.2c12.4,0,22.4-10.1,22.4-22.4c0-12.4-10-22.4-22.4-22.4c-12.4,0-22.4,10.1-22.4,22.4
	C66.6,159.2,76.7,169.2,89,169.2L89,169.2z M89,133.4c7.4,0,13.4,6,13.4,13.4c0,7.4-6,13.4-13.4,13.4c-7.4,0-13.4-6-13.4-13.4
	C75.6,139.4,81.6,133.4,89,133.4L89,133.4z M89,133.4"/>
<path fill="#D3D3D3" d="M150.1,170.8c15.9,0,28.8-12.9,28.8-28.8c0-15.9-12.9-28.8-28.8-28.8c-15.9,0-28.8,12.9-28.8,28.8
	C121.2,157.9,134.2,170.8,150.1,170.8L150.1,170.8z M150.1,122.1c11,0,19.9,8.9,19.9,19.9c0,11-8.9,19.9-19.9,19.9
	c-11,0-19.9-8.9-19.9-19.9C130.2,131,139.1,122.1,150.1,122.1L150.1,122.1z M150.1,122.1"/>
<path fill="#D3D3D3" d="M150.1,179.8c-26.8,0-48.6,21.8-48.6,48.7c0,2.5,2,4.5,4.5,4.5h88.3c2.5,0,4.5-2,4.5-4.5
	C198.7,201.6,176.9,179.8,150.1,179.8L150.1,179.8z M110.6,224c2.2-19.8,19.1-35.2,39.4-35.2c20.4,0,37.2,15.4,39.4,35.2H110.6z
	 M110.6,224"/>
<line fill="#979598" x1="144.9" y1="93.9" x2="149.3" y2="98.4"/>
<g>
	<path fill="#979598" d="M110.5,298.9"/>
</g>
</svg>
