<?xml version="1.0" encoding="utf-8"?>
<!-- Generator: Adobe Illustrator 16.0.0, SVG Export Plug-In . SVG Version: 6.00 Build 0)  -->
<!DOCTYPE svg PUBLIC "-//W3C//DTD SVG 1.1//EN" "http://www.w3.org/Graphics/SVG/1.1/DTD/svg11.dtd">
<svg version="1.1" id="Layer_1" xmlns="http://www.w3.org/2000/svg" xmlns:xlink="http://www.w3.org/1999/xlink" x="0px" y="0px"
	 width="620.4px" height="300px" viewBox="0 0 620.4 300" enable-background="new 0 0 620.4 300" xml:space="preserve">
<g>
	<polyline opacity="0.8" fill="#98CA75" points="65.2,263.1 79.8,257.6 105.4,268.2 128.9,257.6 144.2,268.2 147.7,263.1 
		149.2,241.3 56.9,241.3 61.9,263.8 	"/>
	<polygon opacity="0.8" fill="#98CA75" points="61.9,172.6 98.2,182.8 124.2,182.8 149.2,172.6 151.8,224.2 61.9,227.5 	"/>
	<circle opacity="0.8" fill="#98CA75" cx="109.4" cy="100.2" r="61.5"/>
	<path fill="#D3D3D3" d="M106.5,167.1c-36.4,0-66.1-29.6-66.1-66C40.4,64.7,70,35,106.5,35s66,29.6,66,66.1
		C172.5,137.5,142.9,167.1,106.5,167.1L106.5,167.1z M106.5,43.3c-31.9,0-57.8,25.9-57.8,57.8c0,31.9,25.9,57.8,57.8,57.8
		c31.9,0,57.8-25.9,57.8-57.8C164.3,69.2,138.3,43.3,106.5,43.3L106.5,43.3z M106.5,43.3"/>
	<path fill="#D3D3D3" d="M193.2,101.1c0-47.8-38.9-86.7-86.7-86.7c-47.8,0-86.7,38.9-86.7,86.7c0,29.4,14.7,55.4,37.2,71.1v105.4
		l24.9-15l24.6,12.3l24.6-12.3l24.9,15V172.2C178.4,156.5,193.2,130.5,193.2,101.1L193.2,101.1z M65.2,229.1h82.6v8.3H65.2V229.1z
		 M131.4,253.3l-25,12.5l-24.9-12.5l-16.3,9.8v-17.5h82.6v17.5L131.4,253.3z M147.7,220.8H65.2v-43.5c12.3,6.7,26.3,10.5,41.3,10.5
		c14.9,0,29-3.8,41.3-10.5V220.8z M106.5,179.5c-43.2,0-78.4-35.2-78.4-78.4c0-43.2,35.2-78.4,78.4-78.4c43.2,0,78.4,35.2,78.4,78.4
		C184.9,144.3,149.7,179.5,106.5,179.5L106.5,179.5z M106.5,179.5"/>
	<path fill="#FFFFFF" d="M99.1,76.8c2.1,2.3,3.2,5.1,3.2,8.4s-1.1,6.1-3.2,8.4c-2.2,2.3-4.8,3.5-8,3.5s-5.9-1.1-8-3.5
		c-2.1-2.3-3.2-5.1-3.2-8.4c0-3.3,1.1-6.1,3.2-8.4c2.2-2.3,4.8-3.5,8-3.5C94.3,73.3,97,74.4,99.1,76.8L99.1,76.8z M129.3,74.6
		l-38,51.9h-9.6l38-51.9H129.3z M94.1,89c0.8-1,1.2-2.3,1.2-3.8c0-1.5-0.4-2.7-1.3-3.8c-0.8-1-1.9-1.5-3.1-1.5c-1.2,0-2.2,0.5-3,1.5
		c-0.8,1-1.2,2.3-1.2,3.8c0,1.5,0.4,2.7,1.3,3.8c0.8,1,1.9,1.5,3.1,1.5C92.3,90.5,93.3,90,94.1,89L94.1,89z M128.6,106.8
		c2.1,2.3,3.2,5.1,3.2,8.4c0,3.3-1.1,6.1-3.2,8.4c-2.2,2.3-4.8,3.5-8,3.5s-5.9-1.1-8-3.5c-2.1-2.3-3.2-5.1-3.2-8.4
		c0-3.3,1.1-6.1,3.2-8.4c2.2-2.3,4.8-3.5,8-3.5C123.8,103.4,126.4,104.5,128.6,106.8L128.6,106.8z M123.8,119.3
		c0.8-1,1.2-2.3,1.2-3.8c0-1.5-0.4-2.7-1.3-3.8c-0.8-1-1.9-1.5-3.1-1.5c-1.2,0-2.2,0.5-3,1.5c-0.8,1-1.2,2.3-1.2,3.8
		c0,1.5,0.4,2.7,1.3,3.8c0.8,1,1.9,1.5,3.1,1.5C122,120.8,123,120.3,123.8,119.3L123.8,119.3z M123.8,119.3"/>
</g>
<g>
	<polyline opacity="0.8" fill="#98CA75" points="275,263.1 289.7,257.6 315.2,268.2 338.7,257.6 354,268.2 357.6,263.1 359.1,241.3 
		266.8,241.3 271.8,263.8 	"/>
	<polygon opacity="0.8" fill="#98CA75" points="269.2,172.6 305.4,182.8 331.4,182.8 356.5,172.6 359.1,224.2 269.2,227.5 	"/>
	<circle opacity="0.8" fill="#98CA75" cx="316.6" cy="100.2" r="61.5"/>
	<path fill="#D3D3D3" d="M313.7,167.1c-36.4,0-66.1-29.6-66.1-66c0-36.4,29.6-66.1,66.1-66.1s66,29.6,66,66.1
		C379.7,137.5,350.1,167.1,313.7,167.1L313.7,167.1z M313.7,43.3c-31.9,0-57.8,25.9-57.8,57.8c0,31.9,25.9,57.8,57.8,57.8
		c31.9,0,57.8-25.9,57.8-57.8C371.5,69.2,345.6,43.3,313.7,43.3L313.7,43.3z M313.7,43.3"/>
	<path fill="#D3D3D3" d="M400.4,101.1c0-47.8-38.9-86.7-86.7-86.7c-47.8,0-86.7,38.9-86.7,86.7c0,29.4,14.7,55.4,37.2,71.1v105.4
		l24.9-15l24.6,12.3l24.6-12.3l24.9,15V172.2C385.7,156.5,400.4,130.5,400.4,101.1L400.4,101.1z M272.4,229.1H355v8.3h-82.6V229.1z
		 M338.6,253.3l-25,12.5l-24.9-12.5l-16.3,9.8v-17.5H355v17.5L338.6,253.3z M355,220.8h-82.6v-43.5c12.3,6.7,26.3,10.5,41.3,10.5
		c14.9,0,29-3.8,41.3-10.5V220.8z M313.7,179.5c-43.2,0-78.4-35.2-78.4-78.4c0-43.2,35.2-78.4,78.4-78.4c43.2,0,78.4,35.2,78.4,78.4
		C392.1,144.3,356.9,179.5,313.7,179.5L313.7,179.5z M313.7,179.5"/>
	<path fill="#FFFFFF" d="M329.1,100.4c-2.6-2.1-6.6-3.7-11.9-5.1H317V81.9c3.7,0.5,6.8,1.9,10,4l4.5-6.4c-4.5-3.2-9.5-5.1-14.5-5.4
		v-3.7h-4.5v3.2c-4.5,0.3-8.2,1.6-11.1,4.3c-2.9,2.7-4.2,6.1-4.2,10.2c0,4.3,1.3,7.2,3.7,9.3c2.4,2.1,6.3,3.7,11.6,5.1v13.9
		c-4.2-0.5-8.2-2.7-12.1-6.1l-5,6.1c5,4.5,10.8,7.2,17.1,7.8v5.1h4.5v-5.1c4.8-0.3,8.7-1.6,11.6-4.3c2.9-2.7,4.2-6.1,4.2-10.2
		C332.8,105.7,331.8,102.5,329.1,100.4L329.1,100.4z M312.3,93.9c-2.6-0.8-4.2-1.9-5.3-2.7c-0.8-0.8-1.3-2.1-1.3-3.7
		c0-1.6,0.5-2.9,1.8-4c1.1-1.1,2.9-1.9,4.8-1.9L312.3,93.9L312.3,93.9z M322.3,114.5c-1.3,1.1-3.2,1.9-5.5,2.1v-12.8
		c2.9,0.8,4.8,1.6,5.8,2.7c1.1,1.1,1.6,2.4,1.6,4C324.1,112.1,323.6,113.4,322.3,114.5L322.3,114.5z M322.3,114.5"/>
</g>
<polyline opacity="0.8" fill="#98CA75" points="485.3,263.1 499.9,257.6 525.5,268.2 549,257.6 564.3,268.2 567.8,263.1 
	569.3,241.3 477,241.3 482,263.8 "/>
<polygon opacity="0.8" fill="#98CA75" points="478.2,172.6 514.5,182.8 540.5,182.8 565.5,172.6 568.1,224.2 478.2,227.5 "/>
<circle opacity="0.8" fill="#98CA75" cx="525.7" cy="100.2" r="61.5"/>
<path fill="#D3D3D3" d="M522.8,167.1c-36.4,0-66.1-29.6-66.1-66c0-36.4,29.6-66.1,66.1-66.1s66,29.6,66,66.1
	C588.8,137.5,559.2,167.1,522.8,167.1L522.8,167.1z M522.8,43.3c-31.9,0-57.8,25.9-57.8,57.8c0,31.9,25.9,57.8,57.8,57.8
	c31.9,0,57.8-25.9,57.8-57.8C580.6,69.2,554.6,43.3,522.8,43.3L522.8,43.3z M522.8,43.3"/>
<path fill="#D3D3D3" d="M609.5,101.1c0-47.8-38.9-86.7-86.7-86.7c-47.8,0-86.7,38.9-86.7,86.7c0,29.4,14.7,55.4,37.2,71.1v105.4
	l24.9-15l24.6,12.3l24.6-12.3l24.9,15V172.2C594.7,156.5,609.5,130.5,609.5,101.1L609.5,101.1z M481.5,229.1H564v8.3h-82.6V229.1z
	 M547.7,253.3l-25,12.5l-24.9-12.5l-16.3,9.8v-17.5H564v17.5L547.7,253.3z M564,220.8h-82.6v-43.5c12.3,6.7,26.3,10.5,41.3,10.5
	c14.9,0,29-3.8,41.3-10.5V220.8z M522.8,179.5c-43.2,0-78.4-35.2-78.4-78.4c0-43.2,35.2-78.4,78.4-78.4c43.2,0,78.4,35.2,78.4,78.4
	C601.2,144.3,566,179.5,522.8,179.5L522.8,179.5z M522.8,179.5"/>
<g>
	<g>
		<defs>
			<rect id="SVGID_7_" x="483.4" y="71.8" width="79.6" height="54.7"/>
		</defs>
		<clipPath id="SVGID_2_">
			<use xlink:href="#SVGID_7_"  overflow="visible"/>
		</clipPath>
		<path clip-path="url(#SVGID_2_)" fill="#FFFFFF" d="M552.4,71.8h-33.5c-5,0-9,3.3-10.1,7.9h-6.2c-6.3,0-11.7,3.8-13.8,9.2l-5,12.6
			c-0.4,0.8-0.4,1.3-0.4,2.1v7.9c0,2.7,1.9,5.1,4.4,5.9c0.8,5,5,8.7,10.3,8.7c5.1,0,9.3-3.5,10.3-8.4h25.5c0.9,4.8,5.1,8.4,10.3,8.4
			s9.3-3.5,10.3-8.4h2.3c3.3,0,6.3-2.9,6.3-6.3V82.2C562.9,76.4,558.2,71.8,552.4,71.8L552.4,71.8z M498,122c-3.3,0-6.3-2.9-6.3-6.3
			s2.9-6.3,6.3-6.3s6.3,2.9,6.3,6.3S501.3,122,498,122L498,122z M498,105.2c-4.6,0-8.4,2.8-9.8,6.9c-0.1-0.3-0.2-0.6-0.2-1v-7.9
			l5-12.6c1.7-4.2,5.4-6.7,9.6-6.7h5.9v29.7h-0.2C507.3,108.8,503.1,105.2,498,105.2L498,105.2z M544,122c-3.3,0-6.3-2.9-6.3-6.3
			s2.9-6.3,6.3-6.3c3.3,0,6.3,2.9,6.3,6.3S547.4,122,544,122L544,122z M558.7,111.5c0,1.3-0.8,2.1-2.1,2.1h-2.3
			c-0.9-4.8-5.1-8.4-10.3-8.4c-5.1,0-9.3,3.5-10.3,8.4h-21.1V82.2c0-3.3,2.9-6.3,6.3-6.3h33.5c3.3,0,6.3,2.9,6.3,6.3V111.5z
			 M558.7,111.5"/>
	</g>
</g>
</svg>
