<?xml version="1.0" encoding="utf-8"?>
<!-- Generator: Adobe Illustrator 16.0.0, SVG Export Plug-In . SVG Version: 6.00 Build 0)  -->
<!DOCTYPE svg PUBLIC "-//W3C//DTD SVG 1.1//EN" "http://www.w3.org/Graphics/SVG/1.1/DTD/svg11.dtd">
<svg version="1.1" id="Layer_1" xmlns="http://www.w3.org/2000/svg" xmlns:xlink="http://www.w3.org/1999/xlink" x="0px" y="0px"
	 width="300px" height="300px" viewBox="0 0 300 300" enable-background="new 0 0 300 300" xml:space="preserve">
<path fill="#FFFFFF" d="M110.8,42.1V19.6h78.8v22.5h16.9c3.1,0,5.6,2.5,5.6,5.6v19.7c0,3.1-2.5,5.6-5.6,5.6H94
	c-3.1,0-5.6-2.5-5.6-5.6V47.8c0-3.1,2.5-5.6,5.6-5.6H110.8z M110.8,42.1"/>
<path opacity="0.8" fill="#98CA75" d="M234.7,67.5v149.1h-47.8v47.8h-121v-197h22.5c0,3.1,2.5,5.6,5.6,5.6h112.6
	c3.1,0,5.6-2.5,5.6-5.6H234.7z M234.7,67.5"/>
<path fill="#FFFFFF" d="M234.7,216.6l-47.8,47.8v-47.8H234.7z M234.7,216.6"/>
<path fill="#FFFFFF" d="M254.3,47.8v236.4H46.1V47.8h42.2v19.7H65.8v197h121l47.8-47.8V67.5h-22.5V47.8H254.3z M254.3,47.8"/>
<path fill="#D3D3D3" d="M254.3,42.1h-38.1c-2-3.4-5.6-5.6-9.7-5.6h-11.3V19.6c0-3.1-2.5-5.6-5.6-5.6h-78.8c-3.1,0-5.6,2.5-5.6,5.6
	v16.9H94c-4.2,0-7.8,2.3-9.7,5.6H46.1c-3.1,0-5.6,2.5-5.6,5.6v236.4c0,3.1,2.5,5.6,5.6,5.6h208.2c3.1,0,5.6-2.5,5.6-5.6V47.8
	C260,44.7,257.5,42.1,254.3,42.1L254.3,42.1z M94,47.8h78.8V36.5h-56.3V25.2H184v16.9c0,3.1,2.5,5.6,5.6,5.6h16.9v19.7H94V47.8z
	 M206.5,78.7c4.2,0,7.8-2.3,9.7-5.6H229V211h-42.2c-3.1,0-5.6,2.5-5.6,5.6v42.2H71.4V73.1h12.8c2,3.4,5.6,5.6,9.7,5.6H206.5z
	 M221.1,222.2l-28.6,28.6v-28.6H221.1z M248.7,278.5h-197V53.4h31v8.4H65.8c-3.1,0-5.6,2.5-5.6,5.6v197c0,3.1,2.5,5.6,5.6,5.6h121
	c1.5,0,2.9-0.6,4-1.6l47.8-47.8c1.1-1.1,1.6-2.5,1.6-4h0V67.5c0-3.1-2.5-5.6-5.6-5.6h-16.9v-8.4h31V278.5z M248.7,278.5"/>
<path fill="#FFFFFF" d="M206.9,95.5h-42.8h-31.6H89.7c-3.1,0-5.6,2.5-5.6,5.6c0,3.1,2.5,5.6,5.6,5.6h42.8h31.6h42.8
	c3.1,0,5.6-2.5,5.6-5.6C212.5,98,210,95.5,206.9,95.5z"/>
<path fill="#FFFFFF" d="M206.9,121.5h-42.8h-31.6H89.7c-3.1,0-5.6,2.5-5.6,5.6c0,3.1,2.5,5.6,5.6,5.6h42.8h31.6h42.8
	c3.1,0,5.6-2.5,5.6-5.6C212.5,124,210,121.5,206.9,121.5z"/>
<path fill="#FFFFFF" d="M206.9,147.4h-42.8h-31.6H89.7c-3.1,0-5.6,2.5-5.6,5.6c0,3.1,2.5,5.6,5.6,5.6h42.8h31.6h42.8
	c3.1,0,5.6-2.5,5.6-5.6C212.5,150,210,147.4,206.9,147.4z"/>
<path fill="#FFFFFF" d="M206.9,173.4h-42.8h-31.6H89.7c-3.1,0-5.6,2.5-5.6,5.6c0,3.1,2.5,5.6,5.6,5.6h42.8h31.6h42.8
	c3.1,0,5.6-2.5,5.6-5.6C212.5,176,210,173.4,206.9,173.4z"/>
<path fill="#FFFFFF" d="M173,199.4h-8.9h-31.6H89.7c-3.1,0-5.6,2.5-5.6,5.6c0,3.1,2.5,5.6,5.6,5.6h42.8h31.6h8.9
	c3.1,0,5.6-2.5,5.6-5.6C178.6,202,176.1,199.4,173,199.4z"/>
</svg>
